<?xml version="1.0" encoding="UTF-8"?>
<svg xmlns="http://www.w3.org/2000/svg" height="300" width="400" viewBox="0 0 400 300">
  <!-- White background rectangle -->
  <rect x="0" y="0" width="400" height="300" fill="white" stroke="none"/>
  
  <!-- Ornament board placeholder -->
  <!-- TODO: Replace with actual ornament artwork -->
  <text x="200" y="150" text-anchor="middle" font-family="Arial" font-size="24" fill="black">Holiday Ornament</text>
  <text x="200" y="180" text-anchor="middle" font-family="Arial" font-size="16" fill="gray">26 LEDs</text>
  
  <!-- LED positions (circles) - D9 Outer Ring (0-11) -->
  <circle cx="200" cy="30" r="5" fill="none" stroke="red" stroke-width="1"/>
  <circle cx="230" cy="40" r="5" fill="none" stroke="red" stroke-width="1"/>
  <circle cx="250" cy="60" r="5" fill="none" stroke="red" stroke-width="1"/>
  <circle cx="190" cy="25" r="5" fill="none" stroke="red" stroke-width="1"/>
  <circle cx="210" cy="25" r="5" fill="none" stroke="red" stroke-width="1"/>
  <circle cx="260" cy="80" r="5" fill="none" stroke="red" stroke-width="1"/>
  <circle cx="270" cy="110" r="5" fill="none" stroke="red" stroke-width="1"/>
  <circle cx="270" cy="140" r="5" fill="none" stroke="red" stroke-width="1"/>
  <circle cx="260" cy="170" r="5" fill="none" stroke="red" stroke-width="1"/>
  <circle cx="250" cy="190" r="5" fill="none" stroke="red" stroke-width="1"/>
  <circle cx="230" cy="210" r="5" fill="none" stroke="red" stroke-width="1"/>
  <circle cx="200" cy="220" r="5" fill="none" stroke="red" stroke-width="1"/>
  
  <!-- LED positions (circles) - D7 Rows (12-25) -->
  <circle cx="130" cy="60" r="5" fill="none" stroke="blue" stroke-width="1"/>
  <circle cx="150" cy="50" r="5" fill="none" stroke="blue" stroke-width="1"/>
  <circle cx="170" cy="45" r="5" fill="none" stroke="blue" stroke-width="1"/>
  <circle cx="190" cy="40" r="5" fill="none" stroke="blue" stroke-width="1"/>
  <circle cx="210" cy="40" r="5" fill="none" stroke="blue" stroke-width="1"/>
  <circle cx="140" cy="90" r="5" fill="none" stroke="blue" stroke-width="1"/>
  <circle cx="260" cy="90" r="5" fill="none" stroke="blue" stroke-width="1"/>
  <circle cx="120" cy="120" r="5" fill="none" stroke="blue" stroke-width="1"/>
  <circle cx="150" cy="130" r="5" fill="none" stroke="blue" stroke-width="1"/>
  <circle cx="250" cy="130" r="5" fill="none" stroke="blue" stroke-width="1"/>
  <circle cx="280" cy="120" r="5" fill="none" stroke="blue" stroke-width="1"/>
  <circle cx="130" cy="150" r="5" fill="none" stroke="blue" stroke-width="1"/>
  <circle cx="170" cy="160" r="5" fill="none" stroke="blue" stroke-width="1"/>
  <circle cx="230" cy="160" r="5" fill="none" stroke="blue" stroke-width="1"/>
</svg>

